HIERARCHY
ROOT Hips
{
  OFFSET 43.0842 91.1655 101.099
  CHANNELS 6 Xposition Yposition Zposition Zrotation Xrotation Yrotation
  JOINT LeftUpLeg
  {
    OFFSET 8.64259 1.95398 -2.38835
    CHANNELS 3 Zrotation Xrotation Yrotation
    JOINT LeftLeg
    {
      OFFSET 43.7702 0 0
      CHANNELS 3 Zrotation Xrotation Yrotation
      JOINT LeftFoot
      {
        OFFSET 40.6238 0 0
        CHANNELS 3 Zrotation Xrotation Yrotation
        JOINT LeftToeBase
        {
          OFFSET 12.7242 0 0
          CHANNELS 3 Zrotation Xrotation Yrotation
          End Site
          {
            OFFSET 0 0 0
          }
        }
      }
    }
  }
  JOINT RightUpLeg
  {
    OFFSET -8.2249 1.95398 -2.59336
    CHANNELS 3 Zrotation Xrotation Yrotation
    JOINT RightLeg
    {
      OFFSET 43.5653 0 0
      CHANNELS 3 Zrotation Xrotation Yrotation
      JOINT RightFoot
      {
        OFFSET 40.6238 0 0
        CHANNELS 3 Zrotation Xrotation Yrotation
        JOINT RightToeBase
        {
          OFFSET 12.7242 0 0
          CHANNELS 3 Zrotation Xrotation Yrotation
          End Site
          {
            OFFSET 0 0 0
          }
        }
      }
    }
  }
  JOINT Spine
  {
    OFFSET 0.165834 0.87714 6.61349
    CHANNELS 3 Zrotation Xrotation Yrotation
    JOINT Spine1
    {
      OFFSET 7.38963 1.71661e-005 0
      CHANNELS 3 Zrotation Xrotation Yrotation
      JOINT Spine2
      {
        OFFSET 11.9445 1.14441e-005 0
        CHANNELS 3 Zrotation Xrotation Yrotation
        JOINT Spine3
        {
          OFFSET 14.7254 4.19617e-005 0
          CHANNELS 3 Zrotation Xrotation Yrotation
          JOINT Spine4
          {
            OFFSET 10.9679 0 0
            CHANNELS 3 Zrotation Xrotation Yrotation
            JOINT RightShoulder
            {
              OFFSET 2.46616 -1.6653 3.69651
              CHANNELS 3 Zrotation Xrotation Yrotation
              JOINT RightArm
              {
                OFFSET 13.0012 0 0
                CHANNELS 3 Zrotation Xrotation Yrotation
                JOINT RightForeArm
                {
                  OFFSET 28.7848 1.52588e-005 0
                  CHANNELS 3 Zrotation Xrotation Yrotation
                  JOINT RightHand
                  {
                    OFFSET 26.5688 1.52588e-005 0
                    CHANNELS 3 Zrotation Xrotation Yrotation
                    End Site
                    {
                      OFFSET 0 0 0
                    }
                  }
                }
              }
            }
            JOINT LeftShoulder
            {
              OFFSET 2.38034 -1.29275 -3.7523
              CHANNELS 3 Zrotation Xrotation Yrotation
              JOINT LeftArm
              {
                OFFSET 16.3182 6.10351e-005 0
                CHANNELS 3 Zrotation Xrotation Yrotation
                JOINT LeftForeArm
                {
                  OFFSET 27.0901 0 0
                  CHANNELS 3 Zrotation Xrotation Yrotation
                  JOINT LeftHand
                  {
                    OFFSET 24.5451 1.52588e-005 0
                    CHANNELS 3 Zrotation Xrotation Yrotation
                    End Site
                    {
                      OFFSET 0 0 0
                    }
                  }
                }
              }
            }
            JOINT Neck
            {
              OFFSET 5.0226 -0.0266342 0
              CHANNELS 3 Zrotation Xrotation Yrotation
              JOINT Head
              {
                OFFSET 6.69364 2.86102e-005 0
                CHANNELS 3 Zrotation Xrotation Yrotation
                End Site
                {
                  OFFSET 0 0 0
                }
              }
            }
          }
        }
      }
    }
  }
}
MOTION
Frames:	18
Frame Time:	0.0333333
46.3174 88.909 114.415 -91.5202 -27.4098 -91.4423 -170.815 22.3936 99.8917 -37.6896 22.7038 -2.91854 62.4454 2.94964 10.4164 35.5889 5.93953 5.35881 167.902 7.13407 74.8214 -25.0013 4.06963 -2.7721 69.9341 -8.26825 4.48762 40.1834 -5.80444 -1.90835 0.820862 7.39609 -89.8703 12.0823 1.69328 0.0728037 0.41248 1.69488 -0.00182377 -22.1308 1.5931 0.578472 -2.11811 1.59311 0.57847 95.2129 -40.6887 -94.2017 17.1642 -23.1557 -64.897 0.348677 -9.12553 -114.671 -12.9785 -2.22065 7.68816 -94.0574 -51.8347 73.2016 -38.5641 -79.0914 -67.8713 -3.83504 30.02 -115.641 21.1324 2.51129 6.10929 -13.5651 11.6517 17.4036 -3.52817 11.398 6.64432 
45.762 89.0977 112.381 -91.8365 -27.565 -91.568 -171.198 21.7987 101.198 -35.7925 23.3642 -2.60189 61.1375 0.609243 9.32631 35.8777 6.20964 5.59246 168.363 6.65288 76.0969 -25.2607 1.71858 -2.51359 69.2219 -7.69516 0.188901 41.6735 -7.04739 0.0775409 0.791181 7.39697 -89.8452 12.0801 1.64597 0.128016 0.41019 1.65005 0.0554238 -22.1324 1.53138 0.616892 -2.11977 1.53141 0.616902 95.2841 -40.3497 -94.1347 17.657 -23.0903 -65.7442 -0.062174 -9.2148 -114.608 -12.7384 -2.13274 7.99618 -94.2499 -51.9599 72.9568 -40.0035 -79.7563 -70.6683 -3.88975 30.2456 -113.985 20.6587 2.42673 5.22254 -13.5161 11.7913 17.8696 -3.54889 11.5163 6.08639 
45.1541 89.5751 110.211 -92.1896 -28.0538 -91.4714 -171.439 21.0951 102.471 -33.1369 20.2482 -2.21921 60.3119 -0.512776 5.62618 34.9399 4.08111 7.18076 168.597 5.53543 77.6332 -24.6584 0.817992 -2.06273 70.0926 -8.60318 -1.32849 40.5722 -6.40863 -0.175848 0.756 7.41958 -89.8292 12.0345 1.58363 0.167791 0.364549 1.58952 0.0979092 -22.1774 1.45999 0.636092 -2.16472 1.45999 0.636084 95.3105 -40.0232 -94.1436 17.9914 -23.3876 -66.4235 -0.710895 -8.408 -114.874 -12.275 -1.95974 8.67472 -94.0963 -51.7508 73.1225 -38.9699 -79.5786 -70.7016 -4.01971 30.1106 -112.008 20.7542 2.45859 4.18816 -13.5304 11.9253 17.4882 -3.46594 11.6664 6.39039 
44.5701 90.1721 108.133 -92.2241 -28.8114 -91.4071 -171.889 20.1932 103.16 -29.6004 18.1033 -1.8768 58.8844 -2.33874 3.50402 33.9069 0.856379 10.0882 168.545 4.4982 78.9398 -23.4041 0.450028 -1.38952 70.2081 -8.53739 -2.39966 39.7086 -5.9916 0.000752544 0.716832 7.42388 -89.7923 12.0253 1.52317 0.248168 0.355236 1.53262 0.180873 -22.1859 1.37817 0.694553 -2.17321 1.37816 0.69455 95.3855 -39.3977 -94.1172 18.7976 -23.1863 -66.5258 -0.614826 -8.68491 -115.086 -12.8075 -2.15423 8.19189 -94.1214 -51.5843 73.0407 -41.9998 -78.6819 -73.5877 -2.77597 29.8739 -110.982 19.6521 2.26438 3.92915 -13.6851 11.7073 17.3935 -3.01802 11.4943 5.97803 
44.2131 90.5213 106.261 -92.1074 -29.8575 -91.4519 -172.195 19.7217 103.232 -26.8603 18.3457 -1.88093 57.9656 -3.56737 4.01802 33.1183 -2.0703 12.6178 168.756 4.00414 80.1318 -22.6268 0.899891 -0.959118 70.3832 -8.38231 -4.18065 39.2067 -6.04467 1.37613 0.655676 7.41518 -89.7406 12.0418 1.42575 0.36165 0.37163 1.44029 0.298533 -22.1682 1.25113 0.773481 -2.15557 1.25115 0.773484 95.5294 -39.3904 -93.8631 18.624 -23.1605 -66.6776 -0.473588 -8.6386 -115.477 -13.3447 -2.33333 8.56733 -94.1492 -51.5273 72.9847 -37.4692 -77.416 -69.3552 -2.3904 29.2836 -109.736 19.665 2.2772 3.43068 -13.7127 11.6913 17.0088 -2.90055 11.4971 6.12673 
43.9648 90.7615 104.765 -92.2601 -30.6189 -91.7776 -171.751 19.6787 102.604 -26.1925 17.1083 -2.51574 57.951 -3.67055 3.81036 32.4803 -3.09207 12.6105 168.988 3.95849 80.8721 -22.9988 0.106216 -0.719611 70.6891 -8.58496 -5.88926 38.5499 -5.64808 1.13673 0.584939 7.43068 -89.7007 12.0103 1.30419 0.455126 0.339915 1.32297 0.397274 -22.1986 1.10711 0.826087 -2.18599 1.10713 0.826086 95.5291 -39.3466 -93.8709 18.6617 -22.9135 -66.515 -0.812571 -8.64144 -115.748 -13.3757 -2.34268 8.71115 -94.3605 -51.7639 72.7432 -33.7562 -76.8346 -65.4254 -1.20443 28.7126 -109.579 20.0871 2.35357 3.28536 -13.5528 11.8436 16.5656 -3.34684 11.6117 6.2521 
43.8742 90.8882 103.728 -92.6581 -31.0877 -92.353 -170.664 19.6392 101.281 -27.389 17.2361 -3.6675 58.772 -2.49119 3.80703 32.905 -2.0479 12.1053 169.19 4.50236 81.2766 -24.4329 1.34188 -0.803035 70.8196 -8.38986 -5.67354 39.1319 -6.06294 1.61504 0.513016 7.45871 -89.6772 11.954 1.17227 0.517058 0.28347 1.19389 0.464959 -22.2539 0.962667 0.845484 -2.24129 0.962677 0.84549 95.5586 -39.6719 -93.7645 17.9158 -22.9696 -66.2439 -0.643669 -8.37457 -116.049 -13.2677 -2.30283 8.92765 -94.9205 -52.2475 72.0687 -30.5173 -76.6677 -61.1561 -0.987865 28.3585 -109.662 20.0469 2.34476 3.37841 -13.5823 12.0076 16.3103 -3.39119 11.7833 6.194 
43.8716 90.9623 102.885 -92.9935 -31.3081 -92.7297 -170.214 19.54 100.403 -28.5663 17.2622 -4.12389 59.1909 -2.00314 5.70222 33.1891 -1.62979 12.1563 169.4 5.4722 81.7099 -26.543 0.880692 -0.791575 70.4943 -7.59852 -6.87258 39.6363 -6.34854 1.72998 0.460703 7.5001 -89.6823 11.8714 1.0657 0.519526 0.200756 1.08753 0.47211 -22.3361 0.860311 0.815809 -2.32341 0.860297 0.815797 95.662 -39.6898 -93.5786 18.21 -22.9249 -65.6318 -1.59187 -7.92207 -116.193 -11.8362 -1.80649 8.67951 -95.5121 -52.9247 71.4129 -28.6027 -76.3581 -58.2128 -0.327113 27.8716 -109.93 20.3035 2.39093 3.2761 -13.341 12.1377 15.6335 -3.68131 11.8798 6.88245 
43.8056 91.0981 102.166 -93.458 -30.8889 -93.0704 -170.065 18.986 100.527 -27.7945 13.9871 -4.24559 58.4865 -3.32101 3.90883 33.615 -0.924878 12.1179 169.549 5.17289 82.029 -26.4086 0.438444 -0.913489 70.63 -8.2485 -6.93351 39.0337 -5.89289 1.10719 0.456729 7.51415 -89.6932 11.8434 1.05258 0.49941 0.172784 1.07353 0.452588 -22.364 0.853841 0.792676 -2.3514 0.85383 0.792669 95.5727 -39.9309 -93.697 17.9475 -23.6473 -64.6701 -1.17454 -7.73528 -116.422 -12.2339 -1.93599 9.0944 -95.9754 -53.555 70.9354 -24.3775 -76.4591 -52.7517 0.305134 27.3908 -110.688 20.065 2.34444 3.58787 -13.7942 12.3238 15.3454 -3.27248 12.1658 7.22883 
43.7706 91.0149 101.639 -93.5503 -30.1095 -93.3688 -169.968 18.699 100.944 -27.0902 11.4388 -4.3923 57.8655 -4.53614 2.09054 33.3871 -0.337183 10.703 169.55 5.05269 81.9574 -26.0917 -0.801662 -0.976723 71.2212 -9.53916 -7.48499 38.4367 -5.51797 0.844269 0.477851 7.49326 -89.6818 11.885 1.10006 0.516595 0.214466 1.12174 0.467667 -22.3225 0.893931 0.823333 -2.30989 0.89396 0.823337 95.4468 -40.2998 -93.8581 17.7316 -24.1709 -63.8797 -0.794733 -7.80145 -116.328 -12.9906 -2.19609 9.45065 -96.6158 -54.2619 70.2414 -19.3425 -76.2597 -46.5708 0.593118 26.2513 -111.375 20.1164 2.3617 3.10608 -13.7679 12.7439 15.6075 -3.62465 12.5557 6.79074 
43.7335 90.9487 101.348 -93.9388 -29.5462 -93.6301 -169.782 17.9491 101.276 -26.5299 10.5325 -4.48186 58.1945 -4.5489 3.16932 32.0867 -0.950976 8.63575 169.336 5.26611 81.8463 -26.8873 -1.23356 -0.942191 71.5846 -10.2108 -7.11559 38.5255 -5.47138 0.461956 0.500838 7.48379 -89.7232 11.9044 1.1263 0.431002 0.23385 1.14421 0.38099 -22.3037 0.94468 0.749593 -2.29103 0.944703 0.749589 95.52 -40.6469 -93.673 17.1662 -24.0477 -63.1622 -1.33939 -8.14812 -116.308 -13.4014 -2.34486 9.27536 -98.1466 -55.4829 68.4784 -11.3667 -76.8178 -38.797 -0.554826 26.2754 -110.984 20.4421 2.41678 3.15282 -14.1609 12.8675 15.6205 -3.9427 12.7238 7.40236 
43.7585 90.9132 101.219 -94.3385 -28.9979 -93.9609 -169.672 17.1303 101.389 -25.8581 11.1014 -4.71158 58.3085 -4.74796 3.51036 31.9032 -1.39472 8.88789 169.074 5.30885 81.5975 -27.2538 -1.04194 -0.971998 71.9712 -10.9405 -6.36189 38.6063 -5.53655 0.556426 0.463077 7.5014 -89.7057 11.869 1.05933 0.473406 0.198423 1.07912 0.426323 -22.3386 0.868078 0.769909 -2.32591 0.86806 0.769902 95.4356 -40.71 -93.81 17.1459 -24.6505 -63.2771 -1.74203 -7.99371 -115.977 -12.6203 -2.07092 9.13258 -97.4366 -55.2134 69.3787 -10.3705 -76.4033 -36.5667 -0.0150888 25.5263 -111.214 20.2655 2.38679 3.12773 -13.9156 13.2032 15.7414 -3.94514 13.0211 7.43012 
43.8581 90.8392 101.053 -94.3733 -28.8035 -94.1123 -169.919 17.2212 101.32 -26.0283 10.5303 -4.71128 58.2178 -5.18634 3.27133 31.9262 -1.34357 8.86444 169.181 5.64209 81.6241 -27.6526 -0.335019 -1.14008 72.1202 -11.3264 -5.92572 38.9918 -5.80268 0.823584 0.457334 7.48284 -89.683 11.9058 1.05876 0.518432 0.23523 1.08054 0.471325 -22.3015 0.853995 0.812673 -2.28889 0.853995 0.812667 95.3143 -41.3088 -93.9229 16.2823 -24.829 -63.1708 -2.15018 -7.58595 -115.955 -12.7537 -2.11907 9.10345 -97.4171 -55.0618 69.3599 -7.39981 -76.2639 -33.4288 -0.983019 26.0972 -110.658 20.8305 2.48413 3.15266 -14.0721 13.3088 15.2325 -3.74165 13.1726 7.75723 
43.8956 90.7537 100.92 -94.59 -28.9603 -94.368 -170.156 17.1778 101.182 -26.2221 10.4693 -4.53153 58.2178 -5.26059 3.25707 31.8758 -1.05882 8.32516 169.198 5.58534 81.4484 -28.0398 -1.02701 -1.23191 72.7681 -12.0792 -5.84816 38.2356 -5.16688 -0.142419 0.440613 7.49344 -89.7029 11.885 1.01605 0.483426 0.214353 1.03635 0.43822 -22.3224 0.823791 0.766456 -2.30971 0.823775 0.76644 95.3854 -40.8075 -93.8814 16.4772 -25.1314 -62.8561 -2.96013 -7.12519 -116.339 -13.0347 -2.20588 9.84092 -97.6546 -55.1992 69.0724 -3.43983 -75.8989 -30.1515 -2.21518 26.4941 -109.789 22.4401 2.75926 3.27107 -14.2351 13.2789 15.2178 -3.61101 13.1767 8.0617 
43.9506 90.7812 100.77 -94.7768 -28.9455 -94.4987 -170.052 16.9115 101.161 -25.785 10.9781 -4.47748 57.9967 -5.31714 3.64598 31.6898 -1.56057 8.65836 169.264 5.78059 81.6925 -28.1828 0.791742 -1.30074 72.521 -11.4969 -5.7779 39.2852 -6.05676 1.24555 0.473391 7.50517 -89.7519 11.862 1.0581 0.381587 0.191426 1.07388 0.33463 -22.3459 0.894515 0.681964 -2.33328 0.894521 0.681962 95.4789 -40.6054 -93.7515 16.4528 -24.9475 -62.7495 -2.27656 -7.29783 -116.29 -12.8804 -2.15434 9.6206 -98.3999 -55.6591 68.1844 -4.65227 -75.8706 -31.5371 -1.34473 26.4011 -109.777 22.8798 2.83327 2.91551 -14.6819 13.0857 15.659 -3.11219 13.0736 7.66911 
43.9618 90.795 100.665 -94.7739 -28.9964 -94.5479 -170.06 16.8873 101.154 -25.6242 10.4576 -4.46252 57.8467 -5.53744 3.50561 31.4395 -1.30444 7.72033 169.299 5.99085 81.6528 -28.8119 -0.341367 -1.32094 72.3464 -11.284 -6.18305 39.005 -5.84819 0.981044 0.464161 7.48273 -89.7603 11.907 1.03588 0.366598 0.236407 1.05102 0.320647 -22.3009 0.877804 0.660994 -2.28823 0.877851 0.661001 95.3496 -40.9181 -93.9256 16.2428 -24.8123 -62.73 -1.64497 -7.46461 -116.085 -12.6138 -2.07374 8.86849 -98.2544 -55.5499 68.3512 -3.05542 -75.2115 -29.9709 -1.50641 25.7296 -109.612 22.3474 2.74316 2.95958 -14.7823 13.1583 15.7526 -3.38593 13.1425 7.47243 
43.9183 90.7397 100.599 -94.8077 -29.068 -94.6541 -170.159 16.9271 101.068 -25.7754 9.50333 -4.36425 57.9284 -5.40704 2.65935 31.6555 -1.15729 7.98042 169.317 5.93292 81.6241 -28.7784 -0.333822 -1.37302 72.632 -11.6924 -6.23897 38.9086 -5.7536 0.79579 0.446123 7.4706 -89.7385 11.931 1.01033 0.412605 0.260393 1.02749 0.367734 -22.2766 0.839603 0.697186 -2.26393 0.83961 0.697183 95.2568 -41.2104 -94.0382 16.5253 -24.5915 -62.7158 -2.5065 -7.33369 -116.186 -11.6463 -1.73175 8.9891 -97.5362 -55.0238 69.1832 -5.16838 -75.576 -31.5777 -1.68876 26.3935 -109.797 22.2982 2.73432 2.76203 -14.5662 13.2946 15.1533 -3.7448 13.234 8.02196 
43.8892 90.708 100.501 -94.7888 -29.1624 -94.66 -170.283 17.0539 101.095 -25.8808 9.25255 -4.32728 57.9386 -5.55736 2.76499 31.6345 -1.12052 7.87837 169.285 5.98896 81.6626 -28.9523 -0.824111 -1.30436 72.3891 -11.5157 -6.89488 39.1683 -5.93343 0.981391 0.444961 7.46424 -89.7352 11.9437 1.00959 0.419081 0.273071 1.02706 0.374235 -22.2639 0.83696 0.703143 -2.25122 0.836966 0.703141 95.1543 -41.4719 -94.1721 16.79 -24.513 -62.4896 -1.90865 -7.90055 -116.206 -11.8693 -1.81033 8.94891 -97.225 -54.738 69.5295 -6.30227 -75.5031 -32.7544 -1.14279 26.3541 -110.199 22.3506 2.74269 2.83697 -14.6592 13.365 14.5765 -3.58842 13.3366 8.35618 
